<svg xmlns="http://www.w3.org/2000/svg" width="129" height="18" viewBox="0 0 129 18" fill="none"><path d="M15.428 5.44423C15.3762 5.41077 15.3174 5.38907 15.256 5.38068C15.1946 5.37229 15.132 5.37744 15.0729 5.39574C14.4252 5.34363 13.775 5.32744 13.1255 5.34725H13.0821C12.7486 5.34725 12.4053 5.34725 12.06 5.34725L9.28 5.29294C8.62889 5.27548 7.91464 5.28131 7.21421 5.30458C6.69727 5.30458 6.19217 5.32204 5.67917 5.33755C5.16618 5.35307 3.86988 5.35695 3.1142 5.35889H2.45323C2.40045 5.37257 2.35322 5.40186 2.31793 5.4428C2.28264 5.48373 2.26099 5.53434 2.25592 5.58776C2.25538 5.60472 2.25837 5.62161 2.26472 5.63739C2.27107 5.65316 2.28064 5.66749 2.29284 5.67948C2.30505 5.69148 2.31962 5.70089 2.33567 5.70713C2.35172 5.71337 2.3689 5.71632 2.38615 5.71578C2.4552 5.71578 2.9169 5.72548 3.75347 5.71578H4.60978C4.83865 5.71578 4.9452 5.71578 4.99255 5.71578C5.61532 5.66597 6.2403 5.64784 6.86498 5.66147H6.91233C7.30694 5.66147 7.71536 5.66147 8.12773 5.64983C8.21533 5.66311 8.3048 5.65782 8.39015 5.63431H8.40396C8.44342 5.63431 8.48288 5.6188 8.52037 5.61492C8.62305 5.6388 8.72892 5.64665 8.83409 5.63819C8.94235 5.63189 9.05099 5.6384 9.15767 5.65759H9.17345C9.25744 5.63526 9.34596 5.63526 9.42995 5.65759H9.44573C9.48413 5.66536 9.52303 5.67054 9.56214 5.67311C10.4838 5.65629 11.4058 5.68607 12.3244 5.76233L12.8433 5.8147C13.3089 5.78528 13.7761 5.79371 14.2403 5.83991H14.2521C14.5974 5.86513 14.9249 5.8884 15.2505 5.88064H15.2682L15.4399 5.74487C15.4675 5.6992 15.4788 5.64577 15.472 5.59307C15.4652 5.54037 15.4407 5.4914 15.4024 5.45393" fill="#EBBD00"></path><path d="M15.3628 11.3349L15.3766 11.3233V11.2922L15.3648 10.227C15.3467 10.0529 15.3381 9.878 15.3392 9.70303C15.3225 9.20589 15.2705 8.71052 15.1833 8.22055L15.1478 8.02651V8.00711L15.1359 7.99352C15.0963 7.94844 15.0703 7.8933 15.061 7.83441C15.0495 7.77877 15.0281 7.72557 14.9978 7.67723C14.915 7.54548 14.8185 7.42258 14.7098 7.31049C14.6862 7.2834 14.6582 7.26044 14.6269 7.24258C14.6112 7.234 14.5966 7.22358 14.5835 7.21153L14.5598 7.19213H14.546L14.5282 7.18048C14.4454 7.11822 14.3508 7.07271 14.25 7.04659C14.2347 7.02999 14.2157 7.017 14.1945 7.0086C14.1733 7.0002 14.1505 6.99661 14.1277 6.99808V6.97092H14.0784L13.8377 6.93599H13.8041L13.7804 6.96316C13.7804 6.9748 13.7706 6.97868 13.7193 6.96316C13.694 6.95532 13.6683 6.94884 13.6423 6.94375H13.6147L13.5989 6.95734C13.5922 6.95064 13.5841 6.94536 13.5752 6.94181L13.4726 6.9127V6.95734C13.4332 6.95619 13.394 6.96417 13.3582 6.98062H13.0524L13.0701 7.03689C13.0446 7.03188 13.0181 7.03335 12.9932 7.04115C12.9684 7.04896 12.946 7.06285 12.9281 7.08152L12.9143 7.09123C12.8768 7.09838 12.8416 7.11435 12.8117 7.13779C12.7959 7.14944 12.79 7.15332 12.7781 7.15332H12.7505L12.7347 7.17272C12.6964 7.20415 12.6531 7.22907 12.6065 7.24646L12.5236 7.28138L12.5453 7.29691L12.5039 7.32214H12.4269V7.38617L12.3835 7.36871L12.352 7.40557C12.298 7.47411 12.2393 7.53894 12.1764 7.59962C12.0976 7.67888 12.0251 7.76385 11.9593 7.85381L11.9416 7.87904L11.9534 7.9062C11.9387 7.91408 11.9259 7.92488 11.9157 7.93791C11.9055 7.95094 11.8982 7.96592 11.8942 7.98188C11.8712 8.0117 11.8575 8.04742 11.8547 8.08472V8.11188C11.8297 8.14103 11.8139 8.17681 11.8094 8.21473C11.8082 8.23167 11.8035 8.24819 11.7956 8.26324L11.7561 8.31175L11.7738 8.3234C11.7635 8.34795 11.7588 8.37446 11.76 8.40101V8.42624L11.7344 8.44176V8.48057C11.7472 8.55181 11.7472 8.62471 11.7344 8.69595C11.7263 8.77078 11.7263 8.84622 11.7344 8.92104C11.7118 8.95986 11.7055 9.00577 11.7166 9.04911C11.7175 9.06074 11.7175 9.07241 11.7166 9.08404L11.6772 9.11509L11.7048 9.15778C11.7203 9.20511 11.7168 9.25652 11.6949 9.30137C11.6731 9.35357 11.6676 9.41101 11.6791 9.4663L11.6673 9.47989C11.6577 9.49272 11.6534 9.5087 11.6555 9.52452C11.6595 9.54307 11.6595 9.56224 11.6555 9.58079L11.6278 9.639V9.66035L11.6791 9.69721C11.674 9.72805 11.674 9.75952 11.6791 9.79036C11.6791 9.82916 11.6791 9.84857 11.6791 9.86215L11.6476 9.91842L11.6791 9.95723V9.96694C11.6749 9.98575 11.6753 10.0053 11.6805 10.0239C11.6856 10.0425 11.6953 10.0596 11.7087 10.0737V10.0931L11.6515 10.1086L11.691 10.1901C11.691 10.1901 11.691 10.2017 11.691 10.2075C11.6833 10.2257 11.6794 10.2451 11.6794 10.2648C11.6794 10.2844 11.6833 10.3039 11.691 10.322C11.6776 10.3617 11.6776 10.4046 11.691 10.4443C11.6921 10.4533 11.6921 10.4624 11.691 10.4714C11.6721 10.4963 11.6609 10.5261 11.6588 10.557C11.6567 10.588 11.6638 10.619 11.6791 10.6461C11.6688 10.6631 11.6621 10.6821 11.6594 10.7017C11.6567 10.7214 11.658 10.7414 11.6634 10.7606L11.5884 10.7839L11.6653 10.8615C11.6622 10.878 11.6643 10.895 11.6713 10.9103C11.6784 10.9256 11.6901 10.9383 11.7048 10.9468H11.6831L11.7107 11.0148C11.7044 11.0536 11.7121 11.0934 11.7324 11.1273C11.7246 11.1366 11.7204 11.1483 11.7206 11.1603L11.691 11.1875L11.7206 11.2301C11.7403 11.2631 11.7344 11.3039 11.7206 11.3679C11.6965 11.4304 11.6965 11.4995 11.7206 11.562L11.6811 11.6027L11.7324 11.6415C11.7213 11.66 11.7154 11.6811 11.7154 11.7026C11.7154 11.7241 11.7213 11.7452 11.7324 11.7638C11.7406 11.7976 11.7406 11.8328 11.7324 11.8666C11.7192 11.9315 11.7247 11.9987 11.7482 12.0606L11.7364 12.1344V12.1247C11.7308 12.1355 11.7279 12.1475 11.7279 12.1596C11.7279 12.1717 11.7308 12.1837 11.7364 12.1945L11.7127 12.2062L11.7285 12.2566C11.7424 12.3171 11.7477 12.3791 11.7443 12.441C11.7338 12.5102 11.739 12.5809 11.7595 12.648C11.78 12.715 11.8152 12.7769 11.8626 12.8291L11.8883 12.8543H11.9238C11.9553 12.842 11.9815 12.8195 11.9984 12.7906C12.0152 12.7617 12.0216 12.7281 12.0165 12.6952C12.0165 12.6952 12.0165 12.6777 12.0165 12.668V12.6505V12.6389C11.9907 12.5043 11.9907 12.3661 12.0165 12.2314C12.0165 12.1945 12.0165 12.1616 12.0165 12.1286V12.1092V12.0956C12.0006 12.0477 12.0006 11.996 12.0165 11.9481C12.0291 11.8945 12.0291 11.8387 12.0165 11.7851C12.0333 11.5176 12.0333 11.2493 12.0165 10.9818C12.0165 10.8712 12.0165 10.7664 12.0067 10.6713C11.9975 10.5421 11.9975 10.4124 12.0067 10.2832C12.0156 10.1695 12.0156 10.0554 12.0067 9.94171C12.0302 9.82354 12.0381 9.70289 12.0303 9.58273C12.0303 9.53034 12.0303 9.47407 12.0303 9.41391V9.39257C12.0432 9.37981 12.0519 9.36362 12.0554 9.34602C12.0589 9.32841 12.057 9.31018 12.0501 9.29361C12.0597 9.25155 12.065 9.20864 12.0659 9.16554C12.0629 9.13586 12.0629 9.10596 12.0659 9.07628V9.0627V9.04911C12.0583 9.02049 12.0583 8.99042 12.0659 8.96179C12.0778 8.91859 12.0778 8.87305 12.0659 8.82984C12.1068 8.72773 12.1295 8.61941 12.1329 8.50968V8.47086C12.1339 8.4584 12.132 8.44588 12.1276 8.43417C12.1232 8.42245 12.1163 8.4118 12.1073 8.40295C12.1127 8.35203 12.1325 8.30363 12.1645 8.26324C12.2082 8.20595 12.2379 8.13956 12.2513 8.0692V8.05367L12.2651 8.04203C12.2808 8.03212 12.2938 8.01868 12.3031 8.00281C12.3123 7.98694 12.3176 7.96911 12.3184 7.95083C12.3192 7.94309 12.3192 7.93529 12.3184 7.92755C12.3541 7.89317 12.3847 7.85397 12.4092 7.81112C12.4447 7.75485 12.4684 7.7141 12.5354 7.69664L12.569 7.685V7.65201C12.569 7.61708 12.6104 7.59573 12.6617 7.56275C12.7052 7.54026 12.744 7.50999 12.7762 7.47349C12.7913 7.47641 12.807 7.47564 12.8218 7.47124C12.8366 7.46684 12.85 7.45895 12.861 7.44826C12.908 7.43448 12.9517 7.41136 12.9892 7.38035C13.0445 7.33378 13.0623 7.32407 13.0997 7.34348L13.1372 7.35901L13.1609 7.33378C13.1867 7.32917 13.2099 7.31535 13.226 7.29497L13.2694 7.28138C13.299 7.27168 13.3089 7.26974 13.3187 7.28138C13.3365 7.28811 13.3562 7.28811 13.374 7.28138H13.4194H13.4786C13.6306 7.24363 13.791 7.25451 13.9363 7.31243L13.9856 7.33766L14.0133 7.29497L14.031 7.31437C14.0515 7.34385 14.0793 7.3677 14.1117 7.38366C14.1442 7.39962 14.1802 7.40716 14.2165 7.40557C14.2344 7.42151 14.2543 7.4352 14.2757 7.44632L14.3013 7.46185L14.3132 7.47737C14.3488 7.51113 14.3959 7.53052 14.4454 7.5317C14.5363 7.6183 14.604 7.7256 14.6427 7.84411V7.90426H14.6861C14.6976 7.99092 14.7331 8.07281 14.7887 8.141C14.7763 8.17554 14.7763 8.21318 14.7887 8.24772V8.271L14.7729 8.31369L14.8124 8.35444H14.8242C14.822 8.39135 14.8317 8.428 14.8518 8.45922C14.8537 8.46784 14.8578 8.47585 14.8637 8.48251V8.50385C14.8532 8.51967 14.8462 8.53746 14.8432 8.55608C14.8401 8.5747 14.841 8.59374 14.8458 8.61199C14.8507 8.63024 14.8593 8.64731 14.8712 8.6621C14.8831 8.67689 14.898 8.68908 14.9149 8.6979L14.9288 8.7076C14.9011 8.72894 14.9031 8.75029 14.8972 8.78715V8.82984L14.9149 8.86089C14.9179 8.87342 14.9233 8.88527 14.9307 8.89582L14.911 8.91522L14.8952 8.96761L14.9248 9.01224L14.9485 9.02194C14.9485 9.04299 14.9539 9.06368 14.9643 9.0821V9.10927C14.9275 9.21583 14.9324 9.33207 14.9781 9.43526C14.9673 9.4514 14.96 9.46954 14.9566 9.48856C14.9532 9.50758 14.9538 9.52708 14.9584 9.54586C14.9584 9.5575 14.9584 9.57497 14.9584 9.58079L14.9445 9.639C14.9445 9.639 14.9662 9.6487 14.984 9.65258V9.67005L14.9722 9.74185H14.9958C14.9958 9.76513 14.9958 9.78841 14.9958 9.80782C14.9995 9.83447 14.9947 9.86159 14.982 9.88544C14.9723 9.94506 14.982 10.0062 15.0097 10.0601C15.0114 10.069 15.0147 10.0775 15.0195 10.0853C15.0072 10.1001 15.0002 10.1185 14.9998 10.1377C14.9981 10.1427 14.9981 10.1482 14.9998 10.1532H14.986L14.9958 10.1901C15.002 10.2065 15.0139 10.2203 15.0294 10.2289H15.0195C15.0185 10.2444 15.0185 10.26 15.0195 10.2755V10.322L14.982 10.3337L15.0018 10.3725C14.9966 10.3838 14.9939 10.396 14.9939 10.4084C14.9939 10.4208 14.9966 10.433 15.0018 10.4443L14.9761 10.4908C14.9776 10.4989 14.9808 10.5065 14.9856 10.5132C14.9903 10.52 14.9965 10.5256 15.0037 10.5297C14.9969 10.5622 14.9998 10.596 15.0121 10.627C15.0243 10.658 15.0454 10.6848 15.0728 10.7043C15.0854 10.7137 15.0967 10.7248 15.1063 10.7373H15.0748L15.0984 10.813L15.0827 10.8304L15.0353 10.8537L15.0491 10.9197V10.9371C15.0422 10.9475 15.0386 10.9597 15.0386 10.9721C15.0386 10.9845 15.0422 10.9966 15.0491 11.007V11.0167C15.0372 11.0266 15.0274 11.0388 15.0203 11.0524C15.0132 11.0661 15.0089 11.081 15.0077 11.0963V11.1525H15.055C15.055 11.1661 15.055 11.1778 15.0432 11.1875C15.0404 11.2061 15.0337 11.2239 15.0235 11.2399C15.0235 11.2399 15.0235 11.2399 15.0235 11.2515L15.1024 11.2922C15.0931 11.3113 15.0865 11.3316 15.0827 11.3524C15.0799 11.3607 15.0759 11.3685 15.0708 11.3757H14.9998V11.4533C15.0011 11.4668 15.0011 11.4805 14.9998 11.494C14.9988 11.5096 14.9988 11.5251 14.9998 11.5406V11.6182C14.999 11.6325 14.999 11.6467 14.9998 11.6609V11.7036C14.9998 11.725 14.9998 11.7463 14.9998 11.7676C14.9998 11.789 14.9998 11.7929 14.9998 11.8065L14.9445 11.8356L15.0116 11.9054C15.0027 11.9277 14.998 11.9513 14.9978 11.9753H14.8854L14.9643 12.0723C14.9732 12.0858 14.9793 12.101 14.982 12.1169C14.958 12.1471 14.9436 12.1835 14.9406 12.2217C14.9419 12.2327 14.9419 12.2437 14.9406 12.2547L14.9603 12.2819C14.9465 12.291 14.9356 12.3038 14.9288 12.3187C14.924 12.3365 14.924 12.3553 14.9288 12.3731H14.8479L14.913 12.4352L14.8538 12.4565L14.9051 12.4972V12.6583C14.9044 12.6714 14.9075 12.6844 14.9142 12.6958C14.9209 12.7071 14.9307 12.7164 14.9426 12.7223C14.9567 12.7315 14.9727 12.7374 14.9894 12.7398C15.0061 12.7421 15.0231 12.7408 15.0393 12.7359V12.7999L15.1162 12.7786C15.1626 12.7632 15.2122 12.7599 15.2602 12.7689L15.3253 12.7805V12.7185C15.3511 12.4898 15.3583 12.2594 15.347 12.0296C15.3353 11.8232 15.3406 11.6162 15.3628 11.4106C15.3685 11.3949 15.3704 11.3782 15.3684 11.3617C15.3663 11.3452 15.3604 11.3294 15.351 11.3155" fill="#EC6608"></path><path d="M6.32133 11.3349L6.33514 11.3233V11.2922L6.3233 10.227C6.30517 10.0529 6.29661 9.878 6.29765 9.70303C6.28104 9.20589 6.22895 8.71052 6.14178 8.22055L6.10627 8.02651V8.00711L6.09443 7.99352C6.05478 7.94844 6.0288 7.8933 6.01945 7.83441C6.00796 7.77877 5.98659 7.72557 5.95632 7.67723C5.8735 7.54548 5.77695 7.42258 5.66825 7.31049C5.64474 7.2834 5.61672 7.26044 5.58538 7.24258C5.56968 7.234 5.55511 7.22358 5.54197 7.21153L5.5183 7.19213H5.50448L5.48673 7.18048C5.4039 7.11822 5.30934 7.07271 5.20853 7.04659C5.19315 7.02999 5.17417 7.017 5.153 7.0086C5.13182 7.0002 5.10898 6.99661 5.0862 6.99808V6.97092H5.03687L4.79616 6.93599H4.76262L4.73894 6.96316C4.73894 6.9748 4.72907 6.97868 4.67777 6.96316C4.6525 6.95532 4.62682 6.94884 4.60083 6.94375H4.5732L4.55742 6.95734C4.55067 6.95064 4.54262 6.94536 4.53374 6.94181L4.43114 6.9127V6.95734C4.39167 6.95619 4.35248 6.96417 4.3167 6.98062H4.01088L4.02864 7.03689C4.00306 7.03188 3.9766 7.03335 3.95175 7.04115C3.9269 7.04896 3.90447 7.06285 3.88658 7.08152L3.87277 7.09123C3.83525 7.09838 3.80005 7.11435 3.77017 7.13779C3.75439 7.14944 3.74847 7.15332 3.73663 7.15332H3.709L3.69322 7.17272C3.65494 7.20415 3.6116 7.22907 3.56497 7.24646L3.4821 7.28138L3.50381 7.29691L3.46237 7.32214H3.38542V7.38617L3.34202 7.36871L3.31045 7.40557C3.25648 7.47411 3.19781 7.53894 3.13485 7.59962C3.05613 7.67888 2.98357 7.76385 2.91781 7.85381L2.90005 7.87904L2.91189 7.9062C2.89722 7.91408 2.88438 7.92488 2.87419 7.93791C2.864 7.95094 2.85668 7.96592 2.8527 7.98188C2.82974 8.0117 2.81604 8.04742 2.81324 8.08472V8.11188C2.78815 8.14103 2.77237 8.17681 2.76786 8.21473C2.76673 8.23167 2.76202 8.24819 2.75405 8.26324L2.71459 8.31175L2.73234 8.3234C2.72198 8.34795 2.71727 8.37446 2.71853 8.40101V8.42624L2.69288 8.44176V8.48057C2.70572 8.55181 2.70572 8.62471 2.69288 8.69595C2.68483 8.77078 2.68483 8.84622 2.69288 8.92104C2.67033 8.95986 2.66397 9.00577 2.67513 9.04911C2.67596 9.06074 2.67596 9.07241 2.67513 9.08404L2.63566 9.11509L2.66329 9.15778C2.67884 9.20511 2.6753 9.25652 2.65342 9.30137C2.63157 9.35357 2.62607 9.41101 2.63764 9.4663L2.6258 9.47989C2.61617 9.49272 2.61193 9.5087 2.61396 9.52452C2.61796 9.54307 2.61796 9.56224 2.61396 9.58079L2.58634 9.639V9.66035L2.63764 9.69721C2.63248 9.72805 2.63248 9.75952 2.63764 9.79036C2.63764 9.82916 2.63764 9.84857 2.63764 9.86215L2.60607 9.91842L2.63764 9.95723V9.96694C2.63336 9.98575 2.63382 10.0053 2.63898 10.0239C2.64413 10.0425 2.65383 10.0596 2.66723 10.0737V10.0931L2.61001 10.1086L2.64947 10.1901C2.64947 10.1901 2.64947 10.2017 2.64947 10.2075C2.64182 10.2257 2.63788 10.2451 2.63788 10.2648C2.63788 10.2844 2.64182 10.3039 2.64947 10.322C2.63608 10.3617 2.63608 10.4046 2.64947 10.4443C2.65059 10.4533 2.65059 10.4624 2.64947 10.4714C2.63059 10.4963 2.61943 10.5261 2.61733 10.557C2.61523 10.588 2.62228 10.619 2.63764 10.6461C2.62731 10.6631 2.62058 10.6821 2.61787 10.7017C2.61516 10.7214 2.61651 10.7414 2.62185 10.7606L2.54688 10.7839L2.62382 10.8615C2.62066 10.878 2.62276 10.895 2.62982 10.9103C2.63688 10.9256 2.64857 10.9383 2.66329 10.9468H2.64158L2.66921 11.0148C2.66288 11.0536 2.67056 11.0934 2.69091 11.1273C2.68309 11.1366 2.67889 11.1483 2.67907 11.1603L2.64947 11.1875L2.67907 11.2301C2.6988 11.2631 2.69288 11.3039 2.67907 11.3679C2.65497 11.4304 2.65497 11.4995 2.67907 11.562L2.63961 11.6027L2.69091 11.6415C2.6798 11.66 2.67395 11.6811 2.67395 11.7026C2.67395 11.7241 2.6798 11.7452 2.69091 11.7638C2.69913 11.7976 2.69913 11.8328 2.69091 11.8666C2.67769 11.9315 2.68316 11.9987 2.70669 12.0606L2.69485 12.1344V12.1247C2.6893 12.1355 2.68641 12.1475 2.68641 12.1596C2.68641 12.1717 2.6893 12.1837 2.69485 12.1945L2.67118 12.2062L2.68696 12.2566C2.7009 12.3171 2.70621 12.3791 2.70275 12.441C2.69233 12.5102 2.69754 12.5809 2.71799 12.648C2.73845 12.715 2.77366 12.7769 2.82113 12.8291L2.84678 12.8543H2.8823C2.91375 12.842 2.94003 12.8195 2.95687 12.7906C2.97371 12.7617 2.98011 12.7281 2.97503 12.6952C2.97503 12.6952 2.97503 12.6777 2.97503 12.668V12.6505V12.6389C2.94923 12.5043 2.94923 12.3661 2.97503 12.2314C2.97503 12.1945 2.97503 12.1616 2.97503 12.1286V12.1092V12.0956C2.95906 12.0477 2.95906 11.996 2.97503 11.9481C2.9876 11.8945 2.9876 11.8387 2.97503 11.7851C2.99179 11.5176 2.99179 11.2493 2.97503 10.9818C2.97503 10.8712 2.97503 10.7664 2.96516 10.6713C2.95595 10.5421 2.95595 10.4124 2.96516 10.2832C2.97407 10.1695 2.97407 10.0554 2.96516 9.94171C2.98869 9.82354 2.99664 9.70289 2.98884 9.58273C2.98884 9.53034 2.98884 9.47407 2.98884 9.41391V9.39257C3.00166 9.37981 3.01037 9.36362 3.01388 9.34602C3.01739 9.32841 3.01554 9.31018 3.00857 9.29361C3.01822 9.25155 3.02351 9.20864 3.02436 9.16554C3.02135 9.13586 3.02135 9.10596 3.02436 9.07628V9.0627V9.04911C3.01675 9.02049 3.01675 8.99042 3.02436 8.96179C3.03626 8.91859 3.03626 8.87305 3.02436 8.82984C3.06535 8.72773 3.08804 8.61941 3.09144 8.50968V8.47086C3.09236 8.4584 3.09054 8.44588 3.08611 8.43417C3.08169 8.42245 3.07476 8.4118 3.06579 8.40295C3.0712 8.35203 3.09102 8.30363 3.12301 8.26324C3.16667 8.20595 3.19637 8.13956 3.20982 8.0692V8.05367L3.22363 8.04203C3.23928 8.03212 3.25228 8.01868 3.26155 8.00281C3.27082 7.98694 3.27609 7.96911 3.27691 7.95083C3.2777 7.94309 3.2777 7.93529 3.27691 7.92755C3.31262 7.89317 3.34318 7.85397 3.36767 7.81112C3.40318 7.75485 3.42686 7.7141 3.49394 7.69664L3.52748 7.685V7.65201C3.52748 7.61708 3.56892 7.59573 3.62022 7.56275C3.66368 7.54026 3.70249 7.50999 3.73465 7.47349C3.74982 7.47641 3.76547 7.47564 3.78026 7.47124C3.79505 7.46684 3.80852 7.45895 3.8195 7.44826C3.86652 7.43448 3.91016 7.41136 3.94774 7.38035C4.00299 7.33378 4.02075 7.32407 4.05824 7.34348L4.09572 7.35901L4.1194 7.33378C4.14522 7.32917 4.16841 7.31535 4.18451 7.29497L4.22792 7.28138C4.25751 7.27168 4.26738 7.26974 4.27724 7.28138C4.29502 7.28811 4.31471 7.28811 4.33249 7.28138H4.37787H4.43706C4.58912 7.24363 4.74946 7.25451 4.89481 7.31243L4.94414 7.33766L4.97176 7.29497L4.98952 7.31437C5.00998 7.34385 5.03775 7.3677 5.07021 7.38366C5.10267 7.39962 5.13873 7.40716 5.17498 7.40557C5.19292 7.42151 5.21281 7.4352 5.23418 7.44632L5.25982 7.46185L5.27167 7.47737C5.30725 7.51113 5.35443 7.53052 5.40386 7.5317C5.49475 7.6183 5.56252 7.7256 5.60117 7.84411V7.90426H5.64457C5.65609 7.99092 5.69158 8.07281 5.74717 8.141C5.73484 8.17554 5.73484 8.21318 5.74717 8.24772V8.271L5.73138 8.31369L5.77085 8.35444H5.78269C5.78051 8.39135 5.79017 8.428 5.81031 8.45922C5.8122 8.46784 5.81627 8.47585 5.82215 8.48251V8.50385C5.8117 8.51967 5.80473 8.53746 5.80166 8.55608C5.79859 8.5747 5.7995 8.59374 5.80432 8.61199C5.80915 8.63024 5.81779 8.64731 5.82969 8.6621C5.84159 8.67689 5.85649 8.68908 5.87344 8.6979L5.88726 8.7076C5.85963 8.72894 5.86161 8.75029 5.85569 8.78715V8.82984L5.87344 8.86089C5.8764 8.87342 5.88175 8.88527 5.88923 8.89582L5.8695 8.91522L5.85372 8.96761L5.88331 9.01224L5.90699 9.02194C5.90698 9.04299 5.91241 9.06368 5.92277 9.0821V9.10927C5.88596 9.21583 5.89088 9.33207 5.93658 9.43526C5.9258 9.4514 5.91849 9.46954 5.9151 9.48856C5.9117 9.50758 5.9123 9.52708 5.91685 9.54586C5.91685 9.5575 5.91685 9.57497 5.91685 9.58079L5.90304 9.639C5.90304 9.639 5.92475 9.6487 5.9425 9.65258V9.67005L5.93067 9.74185H5.95434C5.95434 9.76513 5.95434 9.78841 5.95434 9.80782C5.95801 9.83447 5.95319 9.86159 5.94053 9.88544C5.93084 9.94506 5.94051 10.0062 5.96815 10.0601C5.96988 10.069 5.97322 10.0775 5.97802 10.0853C5.96565 10.1001 5.9587 10.1185 5.95829 10.1377C5.95663 10.1427 5.95663 10.1482 5.95829 10.1532H5.94447L5.95434 10.1901C5.96048 10.2065 5.97237 10.2203 5.98788 10.2289H5.97802C5.97703 10.2444 5.97703 10.26 5.97802 10.2755V10.322L5.94053 10.3337L5.96026 10.3725C5.95509 10.3838 5.95241 10.396 5.95241 10.4084C5.95241 10.4208 5.95509 10.433 5.96026 10.4443L5.93461 10.4908C5.93607 10.4989 5.9393 10.5065 5.94407 10.5132C5.94884 10.52 5.95504 10.5256 5.96223 10.5297C5.95544 10.5622 5.95833 10.596 5.97058 10.627C5.98283 10.658 6.00391 10.6848 6.03129 10.7043C6.04394 10.7137 6.05522 10.7248 6.06483 10.7373H6.03326L6.05694 10.813L6.04116 10.8304L5.9938 10.8537L6.00761 10.9197V10.9371C6.00074 10.9475 5.99707 10.9597 5.99707 10.9721C5.99707 10.9845 6.00074 10.9966 6.00761 11.007V11.0167C5.99572 11.0266 5.98593 11.0388 5.97882 11.0524C5.97171 11.0661 5.96742 11.081 5.96618 11.0963V11.1525H6.01353C6.01353 11.1661 6.01353 11.1778 6.0017 11.1875C5.99894 11.2061 5.99221 11.2239 5.98196 11.2399C5.98196 11.2399 5.98196 11.2399 5.98196 11.2515L6.06089 11.2922C6.05161 11.3113 6.04497 11.3316 6.04116 11.3524C6.03841 11.3607 6.03442 11.3685 6.02932 11.3757H5.95829V11.4533C5.95959 11.4668 5.95959 11.4805 5.95829 11.494C5.95734 11.5096 5.95734 11.5251 5.95829 11.5406V11.6182C5.95747 11.6325 5.95747 11.6467 5.95829 11.6609V11.7036C5.95829 11.725 5.95829 11.7463 5.95829 11.7676C5.95829 11.789 5.95829 11.7929 5.95829 11.8065L5.90304 11.8356L5.97013 11.9054C5.96118 11.9277 5.9565 11.9513 5.95632 11.9753H5.84385L5.92277 12.0723C5.93172 12.0858 5.93777 12.101 5.94053 12.1169C5.91651 12.1471 5.90209 12.1835 5.8991 12.2217C5.90042 12.2327 5.90042 12.2437 5.8991 12.2547L5.91883 12.2819C5.905 12.291 5.89406 12.3038 5.88726 12.3187C5.88249 12.3365 5.88249 12.3553 5.88726 12.3731H5.80636L5.87147 12.4352L5.81228 12.4565L5.86358 12.4972V12.6583C5.86288 12.6714 5.86604 12.6844 5.8727 12.6958C5.87935 12.7071 5.8892 12.7164 5.90107 12.7223C5.91517 12.7315 5.93115 12.7374 5.94786 12.7398C5.96458 12.7421 5.98161 12.7408 5.99775 12.7359V12.7999L6.0747 12.7786C6.12106 12.7632 6.17067 12.7599 6.21873 12.7689L6.28384 12.7805V12.7185C6.30958 12.4898 6.31684 12.2594 6.30554 12.0296C6.2938 11.8232 6.29908 11.6162 6.32133 11.4106C6.32703 11.3949 6.32892 11.3782 6.32687 11.3617C6.32481 11.3452 6.31886 11.3294 6.30949 11.3155" fill="#0056A4"></path><path d="M10.8619 11.3349L10.8757 11.3233V11.2922L10.8638 10.227C10.8457 10.0529 10.8371 9.878 10.8382 9.70303C10.8216 9.20589 10.7695 8.71052 10.6823 8.22055L10.6468 8.02651V8.00711L10.635 7.99352C10.5953 7.94844 10.5693 7.8933 10.56 7.83441C10.5485 7.77877 10.5271 7.72557 10.4968 7.67723C10.414 7.54548 10.3175 7.42258 10.2088 7.31049C10.1853 7.2834 10.1572 7.26044 10.1259 7.24258C10.1102 7.234 10.0956 7.22358 10.0825 7.21153L10.0588 7.19213H10.045L10.0273 7.18048C9.94442 7.11822 9.84987 7.07271 9.74905 7.04659C9.73368 7.02999 9.7147 7.017 9.69352 7.0086C9.67234 7.0002 9.64951 6.99661 9.62673 6.99808V6.97092H9.5774L9.33669 6.93599H9.30314L9.27947 6.96316C9.27947 6.9748 9.2696 6.97868 9.2183 6.96316C9.19303 6.95532 9.16734 6.94884 9.14135 6.94375H9.11373L9.09795 6.95734C9.0912 6.95064 9.08315 6.94536 9.07427 6.94181L8.97167 6.9127V6.95734C8.9322 6.95619 8.893 6.96417 8.85723 6.98062H8.55141L8.56917 7.03689C8.54358 7.03188 8.51712 7.03335 8.49227 7.04115C8.46742 7.04896 8.445 7.06285 8.42711 7.08152L8.4133 7.09123C8.37577 7.09838 8.34057 7.11435 8.3107 7.13779C8.29491 7.14944 8.289 7.15332 8.27716 7.15332H8.24953L8.23375 7.17272C8.19547 7.20415 8.15212 7.22907 8.1055 7.24646L8.02263 7.28138L8.04433 7.29691L8.0029 7.32214H7.92595V7.38617L7.88255 7.36871L7.85098 7.40557C7.797 7.47411 7.73833 7.53894 7.67537 7.59962C7.59665 7.67888 7.5241 7.76385 7.45834 7.85381L7.44058 7.87904L7.45242 7.9062C7.43775 7.91408 7.42491 7.92488 7.41472 7.93791C7.40453 7.95094 7.39721 7.96592 7.39323 7.98188C7.37027 8.0117 7.35657 8.04742 7.35377 8.08472V8.11188C7.32868 8.14103 7.31289 8.17681 7.30839 8.21473C7.30726 8.23167 7.30255 8.24819 7.29457 8.26324L7.25511 8.31175L7.27287 8.3234C7.26251 8.34795 7.25779 8.37446 7.25906 8.40101V8.42624L7.23341 8.44176V8.48057C7.24625 8.55181 7.24625 8.62471 7.23341 8.69595C7.22536 8.77078 7.22536 8.84622 7.23341 8.92104C7.21086 8.95986 7.20449 9.00577 7.21565 9.04911C7.21649 9.06074 7.21649 9.07241 7.21565 9.08404L7.17619 9.11509L7.20381 9.15778C7.21936 9.20511 7.21583 9.25652 7.19395 9.30137C7.17209 9.35357 7.1666 9.41101 7.17816 9.4663L7.16633 9.47989C7.1567 9.49272 7.15246 9.5087 7.15449 9.52452C7.15848 9.54307 7.15848 9.56224 7.15449 9.58079L7.12687 9.639V9.66035L7.17816 9.69721C7.17301 9.72805 7.17301 9.75952 7.17816 9.79036C7.17816 9.82916 7.17816 9.84857 7.17816 9.86215L7.14659 9.91842L7.17816 9.95723V9.96694C7.17389 9.98575 7.17435 10.0053 7.1795 10.0239C7.18466 10.0425 7.19436 10.0596 7.20776 10.0737V10.0931L7.15054 10.1086L7.19 10.1901C7.19 10.1901 7.19 10.2017 7.19 10.2075C7.18235 10.2257 7.17841 10.2451 7.17841 10.2648C7.17841 10.2844 7.18235 10.3039 7.19 10.322C7.17661 10.3617 7.17661 10.4046 7.19 10.4443C7.19112 10.4533 7.19112 10.4624 7.19 10.4714C7.17112 10.4963 7.15996 10.5261 7.15786 10.557C7.15576 10.588 7.16281 10.619 7.17816 10.6461C7.16783 10.6631 7.16111 10.6821 7.1584 10.7017C7.15568 10.7214 7.15704 10.7414 7.16238 10.7606L7.0874 10.7839L7.16435 10.8615C7.16119 10.878 7.16328 10.895 7.17035 10.9103C7.17741 10.9256 7.1891 10.9383 7.20381 10.9468H7.18211L7.20973 11.0148C7.20341 11.0536 7.21109 11.0934 7.23144 11.1273C7.22362 11.1366 7.21942 11.1483 7.2196 11.1603L7.19 11.1875L7.2196 11.2301C7.23933 11.2631 7.23341 11.3039 7.2196 11.3679C7.19549 11.4304 7.19549 11.4995 7.2196 11.562L7.18014 11.6027L7.23144 11.6415C7.22033 11.66 7.21447 11.6811 7.21447 11.7026C7.21447 11.7241 7.22033 11.7452 7.23144 11.7638C7.23965 11.7976 7.23965 11.8328 7.23144 11.8666C7.21822 11.9315 7.22368 11.9987 7.24722 12.0606L7.23538 12.1344V12.1247C7.22983 12.1355 7.22694 12.1475 7.22694 12.1596C7.22694 12.1717 7.22983 12.1837 7.23538 12.1945L7.21171 12.2062L7.22749 12.2566C7.24143 12.3171 7.24674 12.3791 7.24328 12.441C7.23286 12.5102 7.23806 12.5809 7.25852 12.648C7.27898 12.715 7.31419 12.7769 7.36166 12.8291L7.38731 12.8543H7.42282C7.45428 12.842 7.48056 12.8195 7.4974 12.7906C7.51424 12.7617 7.52064 12.7281 7.51556 12.6952C7.51556 12.6952 7.51556 12.6777 7.51556 12.668V12.6505V12.6389C7.48976 12.5043 7.48976 12.3661 7.51556 12.2314C7.51556 12.1945 7.51556 12.1616 7.51556 12.1286V12.1092V12.0956C7.49959 12.0477 7.49959 11.996 7.51556 11.9481C7.52813 11.8945 7.52813 11.8387 7.51556 11.7851C7.53232 11.5176 7.53232 11.2493 7.51556 10.9818C7.51556 10.8712 7.51556 10.7664 7.50569 10.6713C7.49648 10.5421 7.49648 10.4124 7.50569 10.2832C7.51459 10.1695 7.51459 10.0554 7.50569 9.94171C7.52922 9.82354 7.53717 9.70289 7.52937 9.58273C7.52937 9.53034 7.52937 9.47407 7.52937 9.41391V9.39257C7.54219 9.37981 7.5509 9.36362 7.55441 9.34602C7.55792 9.32841 7.55607 9.31018 7.5491 9.29361C7.55874 9.25155 7.56403 9.20864 7.56488 9.16554C7.56188 9.13586 7.56188 9.10596 7.56488 9.07628V9.0627V9.04911C7.55728 9.02049 7.55728 8.99042 7.56488 8.96179C7.57679 8.91859 7.57679 8.87305 7.56488 8.82984C7.60587 8.72773 7.62857 8.61941 7.63197 8.50968V8.47086C7.63288 8.4584 7.63107 8.44588 7.62664 8.43417C7.62222 8.42245 7.61529 8.4118 7.60632 8.40295C7.61172 8.35203 7.63155 8.30363 7.66354 8.26324C7.7072 8.20595 7.7369 8.13956 7.75035 8.0692V8.05367L7.76416 8.04203C7.77981 8.03212 7.79281 8.01868 7.80208 8.00281C7.81135 7.98694 7.81661 7.96911 7.81743 7.95083C7.81823 7.94309 7.81823 7.93529 7.81743 7.92755C7.85315 7.89317 7.88371 7.85397 7.90819 7.81112C7.94371 7.75485 7.96739 7.7141 8.03447 7.69664L8.06801 7.685V7.65201C8.06801 7.61708 8.10944 7.59573 8.16074 7.56275C8.20421 7.54026 8.24302 7.50999 8.27518 7.47349C8.29034 7.47641 8.306 7.47564 8.32079 7.47124C8.33558 7.46684 8.34905 7.45895 8.36002 7.44826C8.40704 7.43448 8.45069 7.41136 8.48827 7.38035C8.54352 7.33378 8.56127 7.32407 8.59876 7.34348L8.63625 7.35901L8.65993 7.33378C8.68575 7.32917 8.70894 7.31535 8.72504 7.29497L8.76845 7.28138C8.79804 7.27168 8.80791 7.26974 8.81777 7.28138C8.83555 7.28811 8.85524 7.28811 8.87302 7.28138H8.9184H8.97759C9.12965 7.24363 9.28999 7.25451 9.43534 7.31243L9.48467 7.33766L9.51229 7.29497L9.53004 7.31437C9.5505 7.34385 9.57828 7.3677 9.61074 7.38366C9.6432 7.39962 9.67926 7.40716 9.71551 7.40557C9.73345 7.42151 9.75333 7.4352 9.7747 7.44632L9.80035 7.46185L9.81219 7.47737C9.84778 7.51113 9.89496 7.53052 9.94439 7.5317C10.0353 7.6183 10.103 7.7256 10.1417 7.84411V7.90426H10.1851C10.1966 7.99092 10.2321 8.07281 10.2877 8.141C10.2754 8.17554 10.2754 8.21318 10.2877 8.24772V8.271L10.2719 8.31369L10.3114 8.35444H10.3232C10.321 8.39135 10.3307 8.428 10.3508 8.45922C10.3527 8.46784 10.3568 8.47585 10.3627 8.48251V8.50385C10.3522 8.51967 10.3453 8.53746 10.3422 8.55608C10.3391 8.5747 10.34 8.59374 10.3449 8.61199C10.3497 8.63024 10.3583 8.64731 10.3702 8.6621C10.3821 8.67689 10.397 8.68908 10.414 8.6979L10.4278 8.7076C10.4002 8.72894 10.4021 8.75029 10.3962 8.78715V8.82984L10.414 8.86089C10.4169 8.87342 10.4223 8.88527 10.4298 8.89582L10.41 8.91522L10.3942 8.96761L10.4238 9.01224L10.4475 9.02194C10.4475 9.04299 10.4529 9.06368 10.4633 9.0821V9.10927C10.4265 9.21583 10.4314 9.33207 10.4771 9.43526C10.4663 9.4514 10.459 9.46954 10.4556 9.48856C10.4522 9.50758 10.4528 9.52708 10.4574 9.54586C10.4574 9.5575 10.4574 9.57497 10.4574 9.58079L10.4436 9.639C10.4436 9.639 10.4653 9.6487 10.483 9.65258V9.67005L10.4712 9.74185H10.4949C10.4949 9.76513 10.4949 9.78841 10.4949 9.80782C10.4985 9.83447 10.4937 9.86159 10.4811 9.88544C10.4714 9.94506 10.481 10.0062 10.5087 10.0601C10.5104 10.069 10.5137 10.0775 10.5185 10.0853C10.5062 10.1001 10.4992 10.1185 10.4988 10.1377C10.4972 10.1427 10.4972 10.1482 10.4988 10.1532H10.485L10.4949 10.1901C10.501 10.2065 10.5129 10.2203 10.5284 10.2289H10.5185C10.5176 10.2444 10.5176 10.26 10.5185 10.2755V10.322L10.4811 10.3337L10.5008 10.3725C10.4956 10.3838 10.4929 10.396 10.4929 10.4084C10.4929 10.4208 10.4956 10.433 10.5008 10.4443L10.4751 10.4908C10.4766 10.4989 10.4798 10.5065 10.4846 10.5132C10.4894 10.52 10.4956 10.5256 10.5028 10.5297C10.496 10.5622 10.4989 10.596 10.5111 10.627C10.5234 10.658 10.5444 10.6848 10.5718 10.7043C10.5845 10.7137 10.5957 10.7248 10.6054 10.7373H10.5738L10.5975 10.813L10.5817 10.8304L10.5343 10.8537L10.5481 10.9197V10.9371C10.5413 10.9475 10.5376 10.9597 10.5376 10.9721C10.5376 10.9845 10.5413 10.9966 10.5481 11.007V11.0167C10.5362 11.0266 10.5265 11.0388 10.5194 11.0524C10.5122 11.0661 10.5079 11.081 10.5067 11.0963V11.1525H10.5541C10.5541 11.1661 10.5541 11.1778 10.5422 11.1875C10.5395 11.2061 10.5327 11.2239 10.5225 11.2399C10.5225 11.2399 10.5225 11.2399 10.5225 11.2515L10.6014 11.2922C10.5921 11.3113 10.5855 11.3316 10.5817 11.3524C10.5789 11.3607 10.575 11.3685 10.5698 11.3757H10.4988V11.4533C10.5001 11.4668 10.5001 11.4805 10.4988 11.494C10.4979 11.5096 10.4979 11.5251 10.4988 11.5406V11.6182C10.498 11.6325 10.498 11.6467 10.4988 11.6609V11.7036C10.4988 11.725 10.4988 11.7463 10.4988 11.7676C10.4988 11.789 10.4988 11.7929 10.4988 11.8065L10.4436 11.8356L10.5107 11.9054C10.5017 11.9277 10.497 11.9513 10.4968 11.9753H10.3844L10.4633 12.0723C10.4723 12.0858 10.4783 12.101 10.4811 12.1169C10.457 12.1471 10.4426 12.1835 10.4396 12.2217C10.4409 12.2327 10.4409 12.2437 10.4396 12.2547L10.4594 12.2819C10.4455 12.291 10.4346 12.3038 10.4278 12.3187C10.423 12.3365 10.423 12.3553 10.4278 12.3731H10.3469L10.412 12.4352L10.3528 12.4565L10.4041 12.4972V12.6583C10.4034 12.6714 10.4066 12.6844 10.4132 12.6958C10.4199 12.7071 10.4297 12.7164 10.4416 12.7223C10.4557 12.7315 10.4717 12.7374 10.4884 12.7398C10.5051 12.7421 10.5221 12.7408 10.5383 12.7359V12.7999L10.6152 12.7786C10.6616 12.7632 10.7112 12.7599 10.7593 12.7689L10.8244 12.7805V12.7185C10.8501 12.4898 10.8574 12.2594 10.8461 12.0296C10.8343 11.8232 10.8396 11.6162 10.8619 11.4106C10.8676 11.3949 10.8694 11.3782 10.8674 11.3617C10.8653 11.3452 10.8594 11.3294 10.85 11.3155" fill="#006F2E"></path><path d="M0.57373 17.1692H17.1868V0.830811H0.57373V17.1692ZM16.3069 16.3057H1.44977V1.69236H16.3069V16.3057Z" fill="#EC6608"></path><path d="M120.784 10.0948C120.723 10.0948 120.707 10.0501 120.723 9.98998L122.136 6.27407C122.149 6.21392 122.183 6.13824 122.226 6.13824C122.27 6.13824 122.289 6.21392 122.305 6.27407L123.686 10.0055C123.702 10.0501 123.686 10.0948 123.611 10.0948H120.784ZM123.901 10.8515C123.935 10.8489 123.969 10.8579 123.997 10.8769C124.025 10.896 124.046 10.9241 124.055 10.9563L125.285 14.158C125.301 14.1894 125.311 14.224 125.313 14.2595C125.315 14.2949 125.309 14.3303 125.296 14.3633C125.282 14.3963 125.262 14.426 125.236 14.4506C125.21 14.4751 125.179 14.4938 125.144 14.5053C124.991 14.5228 124.931 14.5539 124.931 14.6412C124.931 14.7285 125.115 14.7498 125.391 14.7634C126.618 14.7925 127.741 14.7925 128.293 14.7925C128.846 14.7925 129 14.7634 129 14.6412C129 14.5189 128.923 14.5228 128.803 14.5228C128.585 14.522 128.369 14.5019 128.155 14.4627C127.834 14.3695 127.388 14.1619 126.804 12.8075C125.817 10.5197 123.365 4.35693 122.996 3.52448C122.842 3.17715 122.749 3.04132 122.601 3.04132C122.453 3.04132 122.357 3.21014 122.173 3.64673L118.318 13.1335C118.008 13.8864 117.726 14.4006 117.012 14.4918C116.889 14.5053 116.674 14.5228 116.536 14.5228C116.398 14.5228 116.351 14.5539 116.351 14.6412C116.351 14.7634 116.443 14.7925 116.643 14.7925C117.432 14.7925 118.286 14.7498 118.454 14.7498C118.931 14.7498 119.592 14.7925 120.084 14.7925C120.251 14.7925 120.344 14.7634 120.344 14.6412C120.344 14.5539 120.297 14.5228 120.111 14.5228H119.884C119.407 14.5228 119.269 14.3288 119.269 14.0532C119.294 13.7363 119.372 13.4256 119.5 13.1335L120.328 10.9738C120.358 10.8806 120.389 10.8515 120.466 10.8515H123.901Z" fill="#006F2E"></path><path d="M115.017 7.82325L114.537 7.50308C113.113 6.53287 112.718 6.00895 112.718 5.30458C112.718 4.39064 113.489 3.73477 114.76 3.73477C115.875 3.73477 116.374 4.19466 116.63 4.48184C116.886 4.76215 117.042 5.11605 117.076 5.49086C117.076 5.67326 117.126 5.76446 117.248 5.76446C117.37 5.76446 117.445 5.64221 117.445 5.30458C117.445 4.11704 117.516 3.67462 117.516 3.4767C117.516 3.36804 117.43 3.32341 117.274 3.2943C116.527 3.11206 115.76 3.02468 114.991 3.03428C112.607 3.03428 111.031 4.23928 111.031 5.91581C111.031 7.15186 111.682 8.21909 113.568 9.53082L114.358 10.08C115.78 11.0735 116.039 11.774 116.039 12.521C116.039 13.3282 115.283 14.2674 113.738 14.2674C112.676 14.2674 111.662 13.8541 111.285 12.7267C111.198 12.4762 111.145 12.215 111.13 11.9505C111.13 11.8263 111.114 11.6905 110.96 11.6905C110.871 11.6905 110.816 11.7623 110.786 11.8846C110.766 11.9649 110.751 12.0466 110.743 12.1291C110.725 12.2726 110.67 12.6297 110.652 12.7286C110.546 13.3515 110.358 13.6717 109.958 13.8522C109.557 14.0326 108.908 14.0346 108.507 14.0346C106.929 14.0346 105.792 13.8075 105.761 12.7616C105.745 12.3192 105.761 10.9241 105.761 10.4079V9.21065C105.761 9.11945 105.775 9.05736 105.852 9.05736C106.223 9.05736 108.417 9.07289 108.713 9.10393C109.283 9.16409 109.502 9.39306 109.577 9.68606C109.611 9.86668 109.632 10.0496 109.638 10.2333C109.635 10.2519 109.637 10.2709 109.643 10.2887C109.649 10.3065 109.66 10.3227 109.673 10.3359C109.687 10.3491 109.703 10.359 109.722 10.3648C109.74 10.3705 109.759 10.372 109.778 10.3691C109.916 10.3691 109.916 10.2022 109.916 10.0819C109.916 9.9616 109.948 9.36783 109.979 9.06512C110.025 8.28895 110.102 8.04834 110.102 7.9552C110.102 7.86206 110.054 7.83489 109.995 7.83489C109.936 7.83489 109.855 7.91057 109.746 8.02893C109.608 8.18029 109.376 8.22297 109.007 8.25596C108.638 8.28895 106.207 8.28507 105.869 8.28507C105.775 8.28507 105.761 8.22686 105.761 8.12014V4.27421C105.761 4.16749 105.792 4.12286 105.869 4.12286C106.175 4.12286 108.466 4.15391 108.728 4.18301C109.5 4.27421 109.654 4.45661 109.762 4.73021C109.825 4.90603 109.856 5.09113 109.855 5.27741C109.855 5.4113 109.887 5.48892 109.995 5.48892C110.104 5.48892 110.133 5.39578 110.149 5.3201C110.179 5.13964 110.21 4.4702 110.226 4.31884C110.273 3.62223 110.35 3.43983 110.35 3.3331C110.35 3.25743 110.332 3.19728 110.257 3.19728C110.173 3.20972 110.09 3.22985 110.009 3.25743C109.79 3.29879 109.568 3.32858 109.346 3.34669C109.052 3.36221 105.313 3.36222 104.82 3.36222C104.603 3.36222 104.25 3.34669 103.845 3.3331C103.529 3.3331 103.17 3.32341 102.821 3.31953C102.807 3.24385 102.776 3.20892 102.709 3.20892C102.227 3.31363 101.734 3.36441 101.241 3.36027H96.0397C95.5326 3.36027 94.9525 3.32923 94.5106 3.28266C94.2908 3.25313 94.0729 3.21232 93.8575 3.16041C93.7726 3.16041 93.7213 3.18952 93.6799 3.35445H93.528C93.3307 3.35445 93.1196 3.35445 92.9361 3.37192C92.6026 3.38356 92.3244 3.39714 92.1468 3.40102C91.8371 3.40102 91.2215 3.35445 90.5684 3.35445C90.3711 3.35445 90.2132 3.36997 90.2132 3.49028C90.2132 3.57954 90.2685 3.62611 90.4323 3.62611C90.6758 3.61252 90.9199 3.64276 91.1524 3.71537C91.4444 3.84926 91.5746 4.08987 91.6082 4.79813L91.6378 10.9027C91.4069 10.6621 84.6749 3.29624 84.4756 3.141C84.432 3.09934 84.3768 3.07139 84.317 3.06072C84.2572 3.05004 84.1956 3.05713 84.1399 3.08108C84.0842 3.10502 84.037 3.14473 84.0044 3.19515C83.9718 3.24557 83.9552 3.30441 83.9567 3.36415L83.8225 7.31486L83.6371 12.5385C83.6232 13.8405 83.3628 14.0908 83.0096 14.3081C82.8076 14.404 82.5868 14.4556 82.3625 14.4595C82.0412 14.4787 81.7188 14.4676 81.3996 14.4265C81.2121 14.3914 81.0417 14.2962 80.915 14.1558C80.7882 14.0154 80.7124 13.8376 80.6992 13.6503C80.64 13.0042 80.64 11.8166 80.64 10.3516V7.72041C80.64 5.43265 80.64 5.00381 80.6696 4.52841C80.6992 4.00449 80.8235 3.75224 81.2358 3.67268C81.386 3.64368 81.5386 3.62874 81.6916 3.62805C81.8416 3.62805 81.9323 3.59701 81.9323 3.4767C81.9323 3.38744 81.812 3.35639 81.6147 3.35639C81.0346 3.35639 80.1369 3.40102 79.7561 3.40102C79.3161 3.40102 78.3552 3.35639 77.783 3.35639C77.5383 3.35639 77.416 3.38744 77.416 3.4767C77.416 3.59701 77.5087 3.62805 77.6607 3.62805C77.8453 3.62481 78.0295 3.64436 78.2092 3.68626C78.5426 3.76194 78.6945 4.01808 78.7241 4.52841C78.7537 5.03874 78.7557 5.43265 78.7557 7.72041V10.3671C78.7557 11.8283 78.7557 13.0158 78.6807 13.6484C78.6354 14.085 78.5426 14.3392 78.2368 14.3993C78.0575 14.4392 77.8741 14.4587 77.6903 14.4576C77.5087 14.4576 77.4456 14.5041 77.4456 14.5798C77.4456 14.6846 77.5541 14.7312 77.7514 14.7312C78.3591 14.7312 79.3299 14.6846 79.6692 14.6846C80.0816 14.6846 82.3723 14.7312 82.4453 14.7312C83.2346 14.7312 84.0238 14.7059 84.1698 14.7059C84.4578 14.7059 85.0636 14.7506 86.0501 14.7506C86.2632 14.7506 86.3993 14.7215 86.3993 14.6012C86.3993 14.5119 86.3086 14.4808 86.1409 14.4808C85.8735 14.4902 85.6065 14.4541 85.3516 14.3741C85.0498 14.2713 84.8505 13.8813 84.8209 12.7112L84.7637 9.76173L84.7104 6.82781C84.957 7.11111 91.038 13.6523 91.8943 14.5526C92.0462 14.7156 92.206 14.8806 92.356 14.8806C92.5059 14.8806 92.5336 14.7467 92.5336 14.4149L92.6835 4.94948C92.6835 4.83112 92.6835 4.72245 92.6934 4.62155C92.7407 4.053 92.8709 3.84538 93.1393 3.71925C93.3043 3.66041 93.4787 3.63085 93.6542 3.63193C93.6542 4.06659 93.6542 4.94366 93.6542 5.13382C93.6542 5.32398 93.6858 5.37249 93.7943 5.37249C93.9029 5.37249 93.9305 5.31428 93.9621 5.19203C94.0184 5.00283 94.1057 4.82391 94.2205 4.6623C94.4474 4.33242 94.8124 4.25675 95.7043 4.2257L97.2353 4.16555V10.3594C97.2353 11.7487 97.2353 12.9421 97.1604 13.5766C97.113 14.0171 96.9315 14.3528 96.6276 14.4091C96.3431 14.4468 96.0565 14.4669 95.7694 14.4692C95.5839 14.4692 95.5247 14.5158 95.5247 14.5915C95.5247 14.6962 95.6313 14.7428 95.8305 14.7428C96.4402 14.7428 97.8036 14.6962 98.1508 14.6962C98.581 14.6962 99.5458 14.7428 100.554 14.7428C100.722 14.7428 100.846 14.6962 100.846 14.5915C100.846 14.5158 100.769 14.4692 100.601 14.4692C100.337 14.4644 100.074 14.4444 99.8122 14.4091C99.3544 14.3489 99.2617 14.021 99.2202 13.5921C99.1433 12.9421 99.1433 11.7487 99.1433 10.3594V4.16167L100.649 4.2063C102.01 4.23734 102.474 4.65842 102.505 5.05232L102.519 5.2192C102.535 5.44623 102.567 5.5219 102.689 5.5219C102.811 5.5219 102.809 5.4307 102.827 5.27935C102.827 4.91261 102.827 3.98315 102.827 3.60088C102.925 3.6049 103.022 3.61724 103.117 3.63775C103.628 3.74448 103.75 3.98509 103.78 4.50124C103.814 4.98635 103.814 5.4113 103.814 7.71847V10.3904C103.814 11.7856 103.814 12.9848 103.735 13.6232C103.673 14.0637 103.596 14.3993 103.287 14.4556C103.105 14.4989 102.919 14.5204 102.732 14.5197C102.547 14.5197 102.486 14.5643 102.486 14.64C102.486 14.7447 102.592 14.7894 102.793 14.7894C103.103 14.7894 103.504 14.7758 103.859 14.7603C104.214 14.7447 104.569 14.7447 104.739 14.7447C105.201 14.7447 105.68 14.7603 106.343 14.7894C107.006 14.8185 108.75 14.8379 109.908 14.8379C110.5 14.8379 110.634 14.8379 110.741 14.4498C110.808 14.5221 110.894 14.5745 110.99 14.6012C111.789 14.8947 112.64 15.0299 113.493 14.9989C114.443 15.0315 115.385 14.8152 116.222 14.3722C117.455 13.6581 117.834 12.6045 117.834 11.7216C117.834 10.2701 117.096 9.21842 115.02 7.83101" fill="#006F2E"></path><path d="M58.4743 15.0646C59.4313 15.0646 60.5658 14.9578 61.1636 14.7172C61.2654 14.6901 61.357 14.6343 61.427 14.5568C61.4971 14.4792 61.5427 14.3833 61.5582 14.2806C61.7134 13.6161 61.8215 12.9418 61.8818 12.2626C61.8818 12.1404 61.8502 12.0356 61.7456 12.0356C61.6411 12.0356 61.5977 12.0957 61.5483 12.3363C61.4559 12.7018 61.2821 13.0425 61.0393 13.3337C60.4474 14.0284 59.6345 14.1817 58.3046 14.1817C56.3 14.1817 53.5969 12.3984 53.5969 8.80282C53.5969 7.3378 53.881 5.90383 54.9781 4.89092C55.6351 4.28745 56.4875 3.9537 57.7877 3.9537C59.1688 3.9537 60.329 4.36119 60.8223 4.89092C61.1776 5.27152 61.3839 5.76393 61.4043 6.28027C61.4043 6.48984 61.4359 6.61208 61.5543 6.61208C61.6726 6.61208 61.718 6.48983 61.7338 6.26474C61.7614 5.96398 61.7476 5.13154 61.7772 4.63479C61.8088 4.10505 61.8522 3.92265 61.8522 3.80429C61.8522 3.68592 61.793 3.63741 61.6292 3.62189C61.1813 3.57726 60.7019 3.44142 60.1356 3.36575C59.4171 3.26126 58.6916 3.21067 57.9653 3.21439C55.7377 3.21439 54.3171 3.81787 53.2418 4.81525C51.8074 6.14444 51.4937 7.91992 51.4937 8.95611C51.4937 10.4211 51.8883 12.1112 53.3463 13.4191C54.7058 14.6105 56.4263 15.0646 58.4763 15.0646" fill="#006F2E"></path><path d="M25.3999 4.19889C25.3999 4.03007 25.4295 3.96991 25.54 3.93886C25.7081 3.91116 25.8787 3.90076 26.049 3.90782C27.3848 3.90782 27.9905 5.2506 27.9905 6.2732C27.9905 7.02026 27.7557 7.57134 27.3552 7.88957C27.0888 8.11854 26.7475 8.18063 26.2364 8.18063C25.9928 8.18973 25.7488 8.17413 25.5084 8.13407C25.4453 8.11854 25.3999 8.08943 25.3999 7.96524V4.19889ZM23.5373 10.3927C23.5373 11.7937 23.5373 13.0045 23.4584 13.6429C23.3952 14.0873 23.3203 14.4191 23.0125 14.4812C22.8287 14.5226 22.6407 14.5435 22.4521 14.5433C22.2647 14.5433 22.2055 14.5879 22.2055 14.6655C22.2055 14.7723 22.314 14.8169 22.5153 14.8169C23.1368 14.8169 24.1134 14.7723 24.4646 14.7723C24.9362 14.7723 26.345 14.8615 26.7159 14.8615C29.5709 14.8615 30.8593 13.1714 30.8593 11.5376C30.8593 9.75432 29.3065 8.66768 28.0378 8.23885C28.8882 7.57134 29.6163 6.82622 29.6163 5.5727C29.6163 4.76549 29.123 3.283 26.3094 3.283C25.7846 3.283 25.1809 3.32763 24.4193 3.32763C24.1115 3.32763 23.1348 3.283 22.312 3.283C22.0792 3.283 21.9707 3.31405 21.9707 3.42272C21.9707 3.53138 22.0615 3.55854 22.2331 3.55854C22.4361 3.55393 22.6391 3.56953 22.8388 3.60512C23.3479 3.71184 23.4742 3.95439 23.5038 4.47442C23.5353 4.96147 23.5353 5.38642 23.5353 7.70523L23.5373 10.3927ZM28.9533 12.2245C28.9533 13.8117 27.7695 14.1765 27.073 14.1765C26.6872 14.1935 26.3021 14.1307 25.9425 13.9922C25.4453 13.7982 25.3999 13.5362 25.3999 12.5272V8.91217C25.3999 8.83844 25.4295 8.80739 25.4906 8.80739C25.7254 8.80739 25.8852 8.80739 26.1575 8.82292C26.7633 8.85008 27.1204 8.95875 27.4459 9.18966C28.6298 9.99687 28.9533 11.2776 28.9533 12.2245Z" fill="#006F2E"></path><path d="M65.7905 10.0948C65.7313 10.0948 65.7175 10.0501 65.7313 9.98998L67.144 6.27407C67.1598 6.21392 67.1913 6.13824 67.2367 6.13824C67.2821 6.13824 67.2979 6.21392 67.3137 6.27407L68.6948 10.0055C68.7106 10.0501 68.6948 10.0948 68.6198 10.0948H65.7905ZM68.9099 10.8515C68.9439 10.8485 68.978 10.8573 69.0061 10.8765C69.0343 10.8956 69.0547 10.9239 69.0638 10.9563L70.293 14.158C70.3101 14.1894 70.32 14.224 70.3221 14.2595C70.3241 14.2951 70.3183 14.3306 70.305 14.3637C70.2916 14.3968 70.2711 14.4266 70.2448 14.451C70.2186 14.4755 70.1872 14.494 70.1529 14.5053C70.001 14.5228 69.9398 14.5539 69.9398 14.6412C69.9398 14.7285 70.1233 14.7498 70.3995 14.7634C71.6287 14.7925 72.7494 14.7925 73.3039 14.7925C73.8583 14.7925 74.0102 14.7634 74.0102 14.6412C74.0102 14.5189 73.9313 14.5228 73.8129 14.5228C73.5958 14.5219 73.3792 14.5018 73.1657 14.4627C72.8441 14.3695 72.3982 14.1619 71.8162 12.8075C70.8296 10.5197 68.3752 4.35693 68.0062 3.52448C67.8523 3.17715 67.7596 3.04132 67.6215 3.04132C67.4833 3.04132 67.3768 3.21014 67.1933 3.64673L63.338 13.1335C63.0321 13.8864 62.746 14.4006 62.235 14.4918C62.1321 14.5144 62.0268 14.5248 61.9213 14.5228C61.797 14.5228 61.7358 14.5539 61.7358 14.6412C61.7358 14.7634 61.8286 14.7925 62.0278 14.7925C62.8269 14.7925 63.3064 14.7498 63.4761 14.7498C63.9516 14.7498 64.6125 14.7925 65.1038 14.7925C65.2735 14.7925 65.3643 14.7634 65.3643 14.6412C65.3643 14.5539 65.3189 14.5228 65.1354 14.5228H64.9046C64.4271 14.5228 64.2909 14.3288 64.2909 14.0532C64.3157 13.7364 64.393 13.4257 64.5198 13.1335L65.3485 10.9738C65.3801 10.8806 65.4116 10.8515 65.4866 10.8515H68.9099Z" fill="#006F2E"></path><path d="M36.4765 10.1115H33.651C33.5879 10.1115 33.5721 10.065 33.5879 10.0029L35.0105 6.28696C35.0282 6.22875 35.0578 6.15114 35.1032 6.15114C35.1486 6.15114 35.1644 6.22875 35.1802 6.28696L36.5613 10.0203C36.5771 10.065 36.5613 10.1115 36.4863 10.1115H36.4765ZM51.4441 3.2793H51.1797H51.0435C50.5759 3.29289 49.0843 3.2793 48.4213 3.2793C48.224 3.2793 48.0682 3.29483 48.0682 3.41514C48.0682 3.5044 48.1214 3.55096 48.2832 3.55096C48.5016 3.53754 48.7204 3.56791 48.9264 3.64023C49.2165 3.77412 49.3487 4.09429 49.3802 4.80448L49.4276 10.9517C49.1967 10.7131 42.4667 3.30453 42.2674 3.15706C42.2235 3.11569 42.1683 3.088 42.1085 3.07748C42.0487 3.06696 41.987 3.07408 41.9313 3.09794C41.8756 3.1218 41.8284 3.16133 41.7955 3.21156C41.7626 3.26179 41.7455 3.32047 41.7465 3.38021L41.6143 7.37166L41.4288 12.5953C41.415 13.876 41.2907 14.462 40.8172 14.462C40.3436 14.462 40.1444 13.8954 39.6807 12.8184C38.6942 10.5326 36.2397 4.36982 35.8707 3.53932C35.7188 3.19004 35.6261 3.05421 35.488 3.05421C35.3499 3.05421 35.2394 3.2211 35.0578 3.65963L31.2025 13.1464C30.8967 13.9012 30.6106 14.4135 29.8983 14.5047C29.7399 14.5248 29.5805 14.5358 29.4208 14.5377C29.2985 14.5377 29.2354 14.5687 29.2354 14.658C29.2354 14.7783 29.3301 14.8093 29.5274 14.8093C30.3265 14.8093 31.1729 14.7627 31.3406 14.7627C31.8161 14.7627 32.4771 14.8093 32.9684 14.8093C33.1361 14.8093 33.2288 14.7783 33.2288 14.658C33.2288 14.5687 33.1815 14.5377 32.9999 14.5377H32.7691C32.2936 14.5377 32.1555 14.3436 32.1555 14.0681C32.1799 13.751 32.258 13.4402 32.3863 13.1483L33.213 10.9886C33.2446 10.8974 33.2762 10.8664 33.3511 10.8664H36.7783C36.8119 10.8645 36.8452 10.8739 36.8728 10.8929C36.9003 10.9119 36.9206 10.9395 36.9303 10.9712L38.1595 14.134C38.1744 14.1687 38.1821 14.206 38.182 14.2437C38.1819 14.2814 38.1741 14.3187 38.1589 14.3533C38.1438 14.3879 38.1218 14.4192 38.094 14.4452C38.0663 14.4712 38.0336 14.4914 37.9977 14.5047C37.8438 14.5221 37.7826 14.5512 37.7826 14.6405C37.7826 14.7298 37.9661 14.7472 38.2443 14.7627C38.929 14.7783 39.586 14.7783 40.1306 14.7763H40.2312C40.5587 14.7763 40.8862 14.7763 41.1704 14.7763C41.3124 14.7763 41.4269 14.7763 41.5196 14.7763H41.9556C42.2437 14.7763 42.8514 14.821 43.836 14.821C44.049 14.821 44.1852 14.7899 44.1852 14.6715C44.1852 14.5532 44.0944 14.5512 43.9267 14.5512C43.6596 14.5592 43.3929 14.5238 43.1375 14.4465C42.8356 14.3397 42.6383 13.9497 42.6067 12.7816L42.5515 9.83018L42.5022 6.89432C42.7468 7.17762 48.8298 13.6858 49.688 14.5784C49.836 14.7414 49.9998 14.9083 50.1517 14.9083C50.2721 14.9083 50.3273 14.7724 50.3273 14.4426L50.3826 10.975L50.4871 4.82582C50.5187 4.11951 50.6469 3.7974 50.939 3.66157C51.1443 3.58925 51.3625 3.55888 51.5802 3.57231C51.744 3.57231 51.7972 3.52768 51.7972 3.43648C51.7972 3.34528 51.6493 3.30065 51.4441 3.30065" fill="#006F2E"></path></svg>