<svg xmlns="http://www.w3.org/2000/svg" id="Layer_1" data-name="Layer 1" viewBox="0 0 217.8545 56.7807"><path d="M213.1306,14.5429c.1457-.0466.289-.1034.4374-.1382a1.587,1.587,0,0,0,1.3476-1.5549,35.1185,35.1185,0,0,1,.8408-4.7056c.492-2.0815,1.0651-4.1395,1.749-6.1671.3849-1.1413-.0089-1.7495-1.2082-1.926A2.9335,2.9335,0,0,0,214.8934.23a28.0669,28.0669,0,0,0-9.7878,5.5345,6.4585,6.4585,0,0,0-2.3837,5.93c-.0078,3.9631-.0216,7.9261-.0192,11.8891a17.7835,17.7835,0,0,0,.0535,2.9555,6.8781,6.8781,0,0,0,2.4845,3.9317,27.862,27.862,0,0,0,9.5194,5.3724,3.5591,3.5591,0,0,0,1.7554.19,1.21,1.21,0,0,0,1.1052-1.5605,3.299,3.299,0,0,0-.113-.39,53.358,53.358,0,0,1-2.5589-10.76,1.67,1.67,0,0,0-1.3912-1.64.6088.6088,0,0,1-.5564-.6c-.0684-.6006-.3377-.7976-.9586-.8374a2.3813,2.3813,0,0,1-.7017-.1214.7219.7219,0,0,1-.0954-.23c-.0229-.7779-.49-1.119-1.1893-1.2948a3.41,3.41,0,0,1-1.2942-.5549,7.6244,7.6244,0,0,1,1.5993-.6207c.4105-.1244.7866-.3564.8142-.807.0363-.5947.3376-.745.8671-.7722.6937-.0356.8627-.2277.9851-.9129C213.0511,14.8,213.0957,14.6725,213.1306,14.5429Z" style="fill:#fff"></path><path d="M202.8583,22.7035c-.0187-.0349-.0622-.0877-.052-.1018.0542-.075.0983-.0206.1388.025Z" style="fill:#fff"></path><path d="M208.2867,20.1368a14.7931,14.7931,0,0,0,4.7576,1.4125c1.6761.0642,2.0582,1.05,2.1923,2.527a56.08,56.08,0,0,0,2.3982,9.6079,2.15,2.15,0,0,1-.029,1.9676c-.3249.618-1.6091.7063-3.084.1284s-7.1737-2.914-9.4532-5.6749c-1.4079-1.6693-2.2124-3.0177-2.1454-4.6228.067-.0642,0-5.41,0-5.41Z" style="fill:#fff"></path><path d="M207.4065,18.96a16.56,16.56,0,0,0,4.4279,1.2331c1.4012.056,1.4572.6165,1.5693,1.9056a66.6321,66.6321,0,0,0,1.7936,8.6876,2.1338,2.1338,0,0,1,0,1.7936c-.2716.54-1.3452.6166-2.5782.1121s-5.9973-2.7464-7.903-5.1565c-1.177-1.4573-1.85-2.6343-1.7935-4.0355.056-.0561,0-4.5961,0-4.5961Z" style="fill:#fff"></path><path d="M202.9345,18.0651h-.0184c0,1.1229.0349,2.2473-.0105,3.3684a3.56,3.56,0,0,0,.9054,2.5741,17.0717,17.0717,0,0,0,7.6351,4.88c.7545.2555,1.2981-.29,1.1417-1.0865-.5082-2.5854-.7885-5.2028-1.0954-7.8153a1.3267,1.3267,0,0,0-1.0777-1.28,10.2057,10.2057,0,0,1-3.3331-1.7114A18.9873,18.9873,0,0,1,204.08,13.944c-.2131-.2536-.43-.5291-.8064-.39-.3576.1322-.3356.48-.3369.7851C202.9315,15.581,202.9345,16.823,202.9345,18.0651Z" style="fill:#fff"></path><path d="M208.2867,16.0314a14.7931,14.7931,0,0,1,4.7576-1.4125c1.6761-.0642,2.0582-1.05,2.1923-2.5271a56.0824,56.0824,0,0,1,2.3982-9.6079,2.15,2.15,0,0,0-.029-1.9676c-.3249-.618-1.6091-.7062-3.084-.1284s-7.1737,2.9141-9.4532,5.6749c-1.4079,1.6694-2.2124,3.0177-2.1454,4.6229.067.0642,0,5.41,0,5.41Z" style="fill:#fff"></path><path d="M207.4065,17.2a16.5556,16.5556,0,0,1,4.4279-1.2331c1.4012-.0561,1.4572-.6166,1.5693-1.9057a66.6354,66.6354,0,0,1,1.7936-8.6876,2.1338,2.1338,0,0,0,0-1.7936c-.2716-.5394-1.3452-.6165-2.5782-.1121s-5.9973,2.7465-7.903,5.1566c-1.177,1.4572-1.85,2.6343-1.7935,4.0355.056.056,0,4.596,0,4.596Z" style="fill:#fff"></path><path d="M202.9366,21.9112c.0013.3049-.0207.6529.3369.7851.376.1389.5933-.1366.8064-.39a18.9873,18.9873,0,0,1,3.0017-3.0509,10.2057,10.2057,0,0,1,3.3331-1.7114,1.3267,1.3267,0,0,0,1.0777-1.28c.3069-2.6125.5872-5.23,1.0954-7.8153.1564-.796-.3872-1.342-1.1417-1.0865a17.0717,17.0717,0,0,0-7.6351,4.88,3.56,3.56,0,0,0-.9054,2.5741c.0454,1.1211.0105,2.2455.0105,3.3684h.0184C202.9345,19.4271,202.9315,20.6691,202.9366,21.9112Z" style="fill:#fff"></path><path d="M200.9605,18.185h.0185c0-1.1229-.0349-2.2473.01-3.3684a3.5592,3.5592,0,0,0-.9054-2.5741,17.0706,17.0706,0,0,0-7.6351-4.88c-.7545-.2555-1.2981.29-1.1416,1.0865.5082,2.5854.7884,5.2028,1.0953,7.8153a1.3268,1.3268,0,0,0,1.0778,1.28,10.2077,10.2077,0,0,1,3.3331,1.7114,18.9956,18.9956,0,0,1,3.0017,3.0509c.213.2536.43.5291.8063.39.3577-.1322.3356-.48.3369-.7851C200.9636,20.6691,200.9605,19.4271,200.9605,18.185Z" style="fill:#fff"></path><path d="M184.95,30.76c1.0283-1.657,2.0129-3.3422,3.2045-4.8929a15.7725,15.7725,0,0,1,2.99-3.124,3.9844,3.9844,0,0,1,3.1717-.9613,3.29,3.29,0,0,1,2.6491,3.681,5.5123,5.5123,0,0,1-4.8008,4.56c-.9257.02-1.1771-.2544-1.0111-1.1551a2.9394,2.9394,0,0,0-.0146-1.46.6537.6537,0,0,0-1.0635-.4278,4.2657,4.2657,0,0,0-1.258,1.18,25.3047,25.3047,0,0,0-3.71,7.1439,19.37,19.37,0,0,1-1.66,3.703,5.7568,5.7568,0,0,1-1.7355,1.909,3.0635,3.0635,0,0,1-2.49.4162,1.8391,1.8391,0,0,1-1.3679-1.6545,9.1882,9.1882,0,0,1,.4458-3.8125c.0452-.1632.0845-.3281.1266-.4922.0189-.0549.0181-.0883.0017-.1029-.0025-.0023-.029-.0416-.0847.0294a31.4693,31.4693,0,0,1-4.1455,3.6173,12.51,12.51,0,0,1-7.9308,2.4388,5.7683,5.7683,0,0,1-5.6026-5.094.6356.6356,0,0,0-.0513-.1308c-.1936.01-.2619.166-.3619.267a23.697,23.697,0,0,1-6.17,4.5546.6631.6631,0,0,0-.3924.5275,34.8172,34.8172,0,0,1-2.7363,8.6464,13.5864,13.5864,0,0,1-3.8757,5.05,7.2523,7.2523,0,0,1-5.7525,1.5c-3.1488-.5286-4.647-3.0272-3.7068-6.1025a9.7214,9.7214,0,0,1,3.4413-4.6384,31.2841,31.2841,0,0,1,7.4267-4.3011c.6031-.2623.991-.5772,1.0118-1.2571a5.4821,5.4821,0,0,1,.09-.6209,1.0463,1.0463,0,0,0-.5561.3074,6.8563,6.8563,0,0,1-5.6221,1.1529,4.4762,4.4762,0,0,1-3.4821-3.7711c-.1263-.5447-.2158-1.0973-.346-1.782a5.4657,5.4657,0,0,1-.453.5776,18.5868,18.5868,0,0,1-6.29,4.3477,9.9884,9.9884,0,0,1-5.9993.5724,5.7065,5.7065,0,0,1-4.5006-5.5867,8.7083,8.7083,0,0,1,.09-2.0857c.0668-.3151-.0412-.4444-.3694-.4785a11.9044,11.9044,0,0,1-2.7277-.6058c-.3492-.1229-.3736.138-.4665.3083a25.0048,25.0048,0,0,1-4.3309,5.8356,13.77,13.77,0,0,1-2.6875,2.099c-2.4881,1.4716-4.6464.5438-6.0527-1.3175a5.6475,5.6475,0,0,1-.6954-1.1829c-.1783-.4175-.3393-.8425-.5175-1.2882-.413.5609-.8094,1.1288-1.2364,1.6727a9.2036,9.2036,0,0,1-2.2946,2.1594,3.8626,3.8626,0,0,1-5.26-.8264,8.0242,8.0242,0,0,1-1.6721-4.6653c-.0127-.1493-.0017-.3006-.0017-.5961-.3282.4054-.5739.7109-.8218,1.0147a27.8616,27.8616,0,0,1-4.1568,4.4144,6.1511,6.1511,0,0,1-5.6788,1.1157A4.6121,4.6121,0,0,1,80.1092,37.12a14.6726,14.6726,0,0,1,.2457-5.3681,72.1361,72.1361,0,0,1,3.8129-13.0508c.0479-.1237.0842-.252.1415-.4254a18.9141,18.9141,0,0,0-5.9114.182,2.3132,2.3132,0,0,0-2.0058,1.6433.3354.3354,0,0,1-.3867.26,3.86,3.86,0,0,1-2.3425-.88,1.6873,1.6873,0,0,1,.3146-2.9084,7.4784,7.4784,0,0,1,2.7889-.7377,29.188,29.188,0,0,1,6.4726.1586c.1861.0194,1.59.349,1.943.0655.3327-.2669.4358-.82.6383-1.2477A34.3087,34.3087,0,0,1,90,7.7809a10.0343,10.0343,0,0,1,2.6675-2.4246,3.9076,3.9076,0,0,1,2.6465-.5295,2.8278,2.8278,0,0,1,2.4737,2.8577,14.3723,14.3723,0,0,1-1.3848,6.6594c-.1866.4465-.3918.8853-.6216,1.4023a12.1644,12.1644,0,0,0,5.0864-2.2475,3.3291,3.3291,0,0,0,1.1287-1.5406,1.22,1.22,0,0,0-.2054-1.1959c-.3322-.4354-.2889-.63.1555-.8942a4.7663,4.7663,0,0,1,4.6783.4792,2.6608,2.6608,0,0,1,.1586,3.5733,6.1277,6.1277,0,0,1-2.15,1.687A21.2632,21.2632,0,0,1,98.78,17.4448a34.9392,34.9392,0,0,1-3.8375.5327.557.557,0,0,0-.5056.2735,88.65,88.65,0,0,1-7.1087,10.1345,5.8356,5.8356,0,0,0-.9258,2.5421,11.972,11.972,0,0,0-.3824,4.4907c.0136.0838.0158.17.0334.2524.3266,1.5361,1.3318,2.0018,2.7114,1.238A10.7516,10.7516,0,0,0,91.1483,34.92c1.0273-1.0449,1.96-2.1736,2.9116-3.2864.3584-.4193.2647-.9363.3456-1.4085a19.0358,19.0358,0,0,1,1.6472-5.4783,6.3687,6.3687,0,0,1,1.8786-2.3785,3.0614,3.0614,0,0,1,2.7048-.5232,1.4656,1.4656,0,0,1,1.1464,1.4412,6.2414,6.2414,0,0,1-.6835,2.8907,15.6171,15.6171,0,0,1-1.5005,2.7694,3.9139,3.9139,0,0,0-.7555,2.1129,9.2634,9.2634,0,0,0,.2254,3.2848c.5478,1.71,2.0012,2.0827,3.2968.8547a11.7838,11.7838,0,0,0,1.6718-2.1167,1.0508,1.0508,0,0,0,.1345-.5834,21.5234,21.5234,0,0,1,1.2874-7.0781,7.918,7.918,0,0,1,1.4209-2.4541,3.1916,3.1916,0,0,1,2.4242-1.2244,1.9515,1.9515,0,0,1,2.1814,2.1234,9.4344,9.4344,0,0,1-.6457,3.3807,14.52,14.52,0,0,1-.9485,2.2978,4.5841,4.5841,0,0,0-.5587,2.8287,7.7368,7.7368,0,0,0,.5358,2.3707,1.7124,1.7124,0,0,0,2.4628.9823,5.5917,5.5917,0,0,0,1.609-1.0617,15.2138,15.2138,0,0,0,2.53-3.0579c.1705-.26.1805-.3907-.111-.592a6.9165,6.9165,0,0,1-2.86-3.7861c-.616-2.0967-.1048-3.937,1.4548-5.0087a4.4567,4.4567,0,0,1,4.279-.4872c1.3934.5231,1.7714,1.7387,1.8592,3.0723a12.6107,12.6107,0,0,1-.9438,5.12c-.1394.3869-.0474.5336.29.67a9.7437,9.7437,0,0,0,2.0085.5459c.337.0578.4933-.0284.6149-.38a14.0226,14.0226,0,0,1,5.1361-7.05,10.0915,10.0915,0,0,1,6.2033-1.97,5.6787,5.6787,0,0,1,2.3629.5519,4.0068,4.0068,0,0,1,2.1757,5.1863,7.3826,7.3826,0,0,1-3.6611,4.0728,14.3484,14.3484,0,0,1-5.9461,1.6217c-.5263.0411-1.0547.0623-1.5825.0724-.2332.0044-.3529.0515-.2934.3172a9.438,9.438,0,0,0,.3307,1.3311,3.4067,3.4067,0,0,0,3.4361,2.1517,8.0051,8.0051,0,0,0,4.0142-.9825A18.7941,18.7941,0,0,0,139.8718,32.5a1.1377,1.1377,0,0,0,.2541-.5427,16.2241,16.2241,0,0,1,5.1943-8.3961,7.7983,7.7983,0,0,1,4.45-1.831,4.4576,4.4576,0,0,1,3.5036,1.3421c.2.1884.27.2657.4573-.0254.8756-1.361,1.4743-1.6162,3.1985-1.1019a2.53,2.53,0,0,1,1.9589,3.1837,22.7464,22.7464,0,0,1-2.9491,7.424,4.1162,4.1162,0,0,1-.4161.6986,5.1233,5.1233,0,0,0-1.09,3.3918c-.0166.7056-.1435,1.4086-.2276,2.1752a22.091,22.091,0,0,0,3.8316-2.8627c.7152-.6567,1.3727-1.37,2.039-2.0766a3.4173,3.4173,0,0,0,.82-1.6436,13.8125,13.8125,0,0,1,6.6655-9.2168,9.0587,9.0587,0,0,1,6.0883-1.1677,4.3781,4.3781,0,0,1,3.7535,3.41,5.3138,5.3138,0,0,1-1.4524,4.3552,10.32,10.32,0,0,1-5.6452,3.1466,18.942,18.942,0,0,1-4.1993.4756c-.3628.0055-.5033.0936-.375.4649.0548.1584.0554.3346.0947.4994a3.4122,3.4122,0,0,0,3.6843,2.8463,8.0425,8.0425,0,0,0,3.919-.9588,21.3656,21.3656,0,0,0,5.94-4.9229,1.302,1.302,0,0,0,.2364-.5544c.49-1.6794.7126-3.4176,1.1284-5.1111a4.5645,4.5645,0,0,1,3.05-3.59,4.0258,4.0258,0,0,1,1.7158-.1478,1.7755,1.7755,0,0,1,1.5579,1.7993,5.0541,5.0541,0,0,1-.4751,2.5682,30.33,30.33,0,0,0-1.7145,4.5577C184.8155,30.7486,184.9167,30.8108,184.95,30.76ZM147.44,37.2585a3.5691,3.5691,0,0,0,2.7076-1.51.78.78,0,0,0,.0967-.2826,59.2685,59.2685,0,0,1,2.0659-9.2129c.0781-.2436.0077-.32-.1891-.4124a3.01,3.01,0,0,0-3.2971.4342,8.7249,8.7249,0,0,0-2.6919,3.6517,9.71,9.71,0,0,0-.9017,5.2948A2.1623,2.1623,0,0,0,147.44,37.2585Zm-19.3395-6.02a9.4137,9.4137,0,0,0,3.97-.9017,3.5518,3.5518,0,0,0,1.929-3.8152,1.5827,1.5827,0,0,0-1.601-1.4134,3.7387,3.7387,0,0,0-2.58,1.0474,7.2725,7.2725,0,0,0-2.37,4.759c-.031.2235.0011.3627.2759.3269A2.74,2.74,0,0,1,128.1005,31.2384Zm38.23-.005a9.1729,9.1729,0,0,0,3.9885-.8979,3.5572,3.5572,0,0,0,1.9247-3.8179,1.5829,1.5829,0,0,0-1.6045-1.41,3.7251,3.7251,0,0,0-2.5782,1.0506,6.9426,6.9426,0,0,0-2.2984,4.41C165.661,31.2514,165.6522,31.25,166.33,31.2334ZM148.8584,43.2159c-.5429.26-.9755.4534-1.395.6716a16.23,16.23,0,0,0-4.9965,3.6317,3.9587,3.9587,0,0,0-1.0675,2.2061A1.5291,1.5291,0,0,0,143.59,51.31a3.8327,3.8327,0,0,0,1.184-.87A19.1093,19.1093,0,0,0,148.8584,43.2159ZM117.9705,28.68a9.4031,9.4031,0,0,0,.7635-2.6024,3.44,3.44,0,0,0-.0621-1.5662c-.1522-.4462-.3886-.8134-.9149-.8163-.4351-.0025-.7581.3514-.8577.93A5.25,5.25,0,0,0,117.9705,28.68ZM91.5677,16.3176a9.7193,9.7193,0,0,0,1.4018-.082c.1443,0,.1979-.0827.2551-.1979a13.4013,13.4013,0,0,0,1.244-3.093c.0638-.2955.1088-.6218-.2007-.7659-.3078-.1434-.4941.1595-.6513.3637A19.3052,19.3052,0,0,0,91.5677,16.3176Zm-2.7146,6.7092a45.4274,45.4274,0,0,0,3.1644-4.7585c-.423,0-.7727.0018-1.1224-.0009a.257.257,0,0,0-.2594.1967Q89.7464,20.7462,88.8531,23.0268Z" style="fill:#fff"></path><path d="M78.0621,21.7863a3.9941,3.9941,0,0,0-3.2555,1.011,19.2056,19.2056,0,0,0-4.1176,4.767c-.7291,1.0988-1.4058,2.2322-2.111,3.3578-.0625-.1193-.0024-.2077.0245-.3048a35.5332,35.5332,0,0,1,1.72-4.5038,4.9964,4.9964,0,0,0,.4712-2.5181,1.7853,1.7853,0,0,0-1.5783-1.8339,4.0519,4.0519,0,0,0-1.7146.1558,4.5644,4.5644,0,0,0-3.0361,3.6009c-.4133,1.7115-.6511,3.4638-1.1423,5.159a3.44,3.44,0,0,1-.38,1.1495,31.19,31.19,0,0,1-3.37,4.0911,5.484,5.484,0,0,1-1.5934,1.1727,1.2546,1.2546,0,0,1-1.4327-.12,2.5038,2.5038,0,0,1-.3385-2.55c.3874-.6184.7838-1.2325,1.14-1.8689A22.151,22.151,0,0,0,60.3125,25.03a2.4669,2.4669,0,0,0-1.7745-3.0213c-1.8507-.6182-2.4337-.371-3.3745,1.066-.1774.271-.2457.3052-.4949.0618a4.5133,4.5133,0,0,0-3.7338-1.4,7.6446,7.6446,0,0,0-4.15,1.7794,16.1047,16.1047,0,0,0-4.8455,7.23,11.7367,11.7367,0,0,0-.5858,6.7009,4.4409,4.4409,0,0,0,3.4815,3.7685,6.8737,6.8737,0,0,0,5.99-1.4219c.4027-.3251.77-.6937,1.18-1.0656.05.1277.0841.2186.12.3089a3.19,3.19,0,0,0,4.2024,2.1968,7.3125,7.3125,0,0,0,3.628-2.3474c.5923-.63,1.1391-1.3016,1.7064-1.9546.0365-.0186.0517.0041.0436.0368a9.9678,9.9678,0,0,0-.1175,2.7369,1.8433,1.8433,0,0,0,1.3455,1.6211,3.0551,3.0551,0,0,0,2.4493-.3737,5.6226,5.6226,0,0,0,1.757-1.8875,19.3283,19.3283,0,0,0,1.7085-3.792,25.3229,25.3229,0,0,1,3.69-7.0995,4.3943,4.3943,0,0,1,1.2529-1.1865c.5276-.3024.9092-.1327,1.09.4513A3.0321,3.0321,0,0,1,74.8791,28.9c-.1514.8467.0928,1.1286.9489,1.1243a5.5038,5.5038,0,0,0,4.8682-4.5459A3.29,3.29,0,0,0,78.0621,21.7863ZM53.7226,26.2656a50.0015,50.0015,0,0,0-1.8959,7.6854c-.0508.3012-.0921.604-.1375.906-.0564.3744.0477.7694-.2776,1.1a3.9811,3.9811,0,0,1-1.8,1.1968,2.2094,2.2094,0,0,1-2.9628-1.99c-.0452-.3189-.0762-.64-.1066-.8991a11.4526,11.4526,0,0,1,3.0545-7.4265,4.3854,4.3854,0,0,1,1.7256-1.143,2.9086,2.9086,0,0,1,2.2264.1484C53.7685,25.9393,53.7961,26.0476,53.7226,26.2656Z" style="fill:#fff"></path><path d="M50.7553,44.3335c-.1812-.7672-.5841-.9274-1.1915-.4434-.4389.35-.8476.7371-1.2791,1.0964a7.5116,7.5116,0,0,1-7.3856,1.5755,6.9126,6.9126,0,0,1-4.351-4.4153,21.3917,21.3917,0,0,1-1.324-8.5506,43.0107,43.0107,0,0,1,1.7148-10.01c.0567-.2192.2094-.2959.3733-.38a23.6473,23.6473,0,0,0,2.16-1.2494A18.0587,18.0587,0,0,0,46.5883,13.9a9.3185,9.3185,0,0,0,.78-5.9011,3.8605,3.8605,0,0,0-4.2157-3.1906,6.134,6.134,0,0,0-3.2388,1.3748,17.9843,17.9843,0,0,0-4.2486,4.9153,49.2161,49.2161,0,0,0-4.9971,10.9852,1.0681,1.0681,0,0,1-.8355.7938c-2.986.8383-6.0852,1.0135-9.1742,1.6268.2218-.78.4263-1.5058.6349-2.2309a70.0129,70.0129,0,0,1,4.2934-11.77c.3459-.7.3459-.6948,1.0926-.5362a10.7716,10.7716,0,0,0,1.1533.2063,4.6975,4.6975,0,0,0,3.3846-.5981,2.4362,2.4362,0,0,0,.1-4.0043,3.668,3.668,0,0,0-2.1721-.7732,9.2418,9.2418,0,0,0-4.1238.9846,1.1236,1.1236,0,0,1-.6336.1354c-.8247-.1179-1.65-.2359-2.4771-.3315a26.8528,26.8528,0,0,0-8.7437.1359,17.6242,17.6242,0,0,0-9.9978,5.6031,9.7237,9.7237,0,0,0-2.7276,7.924,5.8583,5.8583,0,0,0,5.0919,5.296,5.56,5.56,0,0,0,6.1322-6.596c-.0427-.19-.0755-.4266-.3157-.4822-.2469-.057-.3557.1406-.4736.3107a1.9721,1.9721,0,0,1-2.2666.9469,2.1181,2.1181,0,0,1-1.7251-1.7866,4.6243,4.6243,0,0,1,.4544-3.1129A9.4549,9.4549,0,0,1,11.621,9.5986c3.1836-1.703,6.5446-1.6779,10.07-.9829-.3584.2863-.6419.4987-.91.729a17.4835,17.4835,0,0,0-4.1834,5.7816A64.62,64.62,0,0,0,12.711,26.1788a.781.781,0,0,1-.5532.63,13.4346,13.4346,0,0,0-1.368.548,21.0363,21.0363,0,0,0-8.0725,5.6439A10.7131,10.7131,0,0,0,.0032,39.6063a5.149,5.149,0,0,0,4.4951,5.4178,10.3994,10.3994,0,0,0,6.1335-1.0771,12.284,12.284,0,0,0,5.1572-5.3515,45.1625,45.1625,0,0,0,3.5524-9.388c.4368-1.4925.4271-1.4647,1.9637-1.76,2.1038-.4041,4.2383-.6075,6.3409-1.013.5933-.1145,1.1866-.2283,1.8218-.35-.0654.2615-.1113.4419-.1556.6228a37.4322,37.4322,0,0,0-1.27,13.4651A22.7036,22.7036,0,0,0,29.9,47.2177c2.7909,5.9364,8.57,7.5578,13.488,6.5218,3.7788-.7961,5.9957-3.4627,7.1478-7.05A4.3411,4.3411,0,0,0,50.7553,44.3335ZM38.4828,18.7455a25.7456,25.7456,0,0,1,2.65-5.6458,5.2726,5.2726,0,0,1,1.3052-1.42,1.5969,1.5969,0,0,1,.35-.2063c.2818-.1048.5885-.2857.8678-.0634a.8559.8559,0,0,1,.2095.8977,8.534,8.534,0,0,1-2.2411,3.9917,16.3562,16.3562,0,0,1-2.9521,2.5844c-.0651.0453-.1336.09-.1336.09C38.4077,18.8954,38.4474,18.8424,38.4828,18.7455ZM8.8991,37.2641a3.0792,3.0792,0,0,1-1.8637,1.5621,1.5529,1.5529,0,0,1-1.9525-1.86,4.5,4.5,0,0,1,.4846-1.3849c1.3346-2.39,3.51-3.7929,5.9626-5.0673A28.8764,28.8764,0,0,1,8.8991,37.2641Z" style="fill:#fff"></path></svg>